<svg xmlns="http://www.w3.org/2000/svg" xmlns:xlink="http://www.w3.org/1999/xlink" width="500" zoomAndPan="magnify" viewBox="0 0 375 374.999991" height="500" preserveAspectRatio="xMidYMid meet" version="1.0"><defs><clipPath id="e4f792abb0"><path d="M 37.5 5.128906 L 342 5.128906 L 342 374.878906 L 37.5 374.878906 Z M 37.5 5.128906 " clip-rule="nonzero"/></clipPath></defs><g clip-path="url(#e4f792abb0)"><path fill="#4154f1" d="M 74.84375 374.855469 L 293.164062 374.855469 C 313.683594 374.855469 330.507812 358.050781 330.507812 337.558594 L 330.507812 308.867188 C 337.484375 303.949219 342 295.75 342 286.734375 L 342 258.042969 C 342 249.023438 337.484375 240.828125 330.507812 235.910156 L 330.507812 166.230469 C 330.507812 162.542969 330.097656 158.855469 328.867188 155.164062 C 326.40625 141.640625 315.734375 131.394531 302.195312 129.753906 C 299.320312 128.933594 296.449219 128.523438 293.164062 128.523438 L 287.832031 128.523438 L 317.378906 105.980469 C 320.25 103.933594 320.660156 99.832031 318.609375 97.375 L 251.304688 8.433594 C 249.253906 5.5625 245.152344 5.152344 242.6875 7.203125 L 81.820312 128.933594 L 74.84375 128.933594 C 71.972656 128.933594 68.6875 129.34375 65.816406 130.164062 C 52.273438 131.804688 41.195312 142.050781 39.140625 155.574219 C 37.910156 158.855469 37.5 162.542969 37.5 166.230469 L 37.5 337.558594 C 37.5 358.050781 54.324219 374.855469 74.84375 374.855469 Z M 315.324219 337.558594 C 315.324219 349.851562 305.476562 359.691406 293.164062 359.691406 L 74.84375 359.691406 C 62.53125 359.691406 52.683594 349.851562 52.683594 337.558594 L 52.683594 186.316406 C 57.609375 189.183594 62.945312 191.234375 69.097656 191.234375 L 298.5 191.234375 C 304.65625 191.234375 310.402344 189.59375 314.914062 186.316406 L 314.914062 230.992188 C 314.914062 230.992188 314.503906 230.992188 314.503906 230.992188 L 242.277344 230.992188 C 219.296875 230.992188 200.832031 249.433594 200.832031 272.386719 C 200.832031 295.339844 219.296875 313.785156 242.277344 313.785156 L 314.914062 313.785156 C 314.914062 313.785156 315.324219 313.785156 315.324219 313.785156 Z M 328.867188 258.042969 L 328.867188 286.734375 C 328.867188 294.109375 322.710938 300.257812 315.324219 300.257812 L 242.277344 300.257812 C 226.683594 300.257812 214.371094 287.554688 214.371094 272.386719 C 214.371094 256.8125 227.09375 244.515625 242.277344 244.515625 L 314.914062 244.515625 C 322.710938 244.515625 328.867188 250.664062 328.867188 258.042969 Z M 245.152344 21.136719 L 305.066406 100.242188 L 266.902344 128.933594 C 266.902344 128.933594 266.492188 129.34375 266.492188 129.34375 L 233.660156 154.34375 L 202.472656 154.34375 C 208.21875 153.527344 213.550781 151.476562 218.476562 147.789062 C 226.273438 142.050781 230.789062 134.671875 232.429688 125.246094 C 234.070312 115.816406 232.019531 107.210938 226.273438 99.421875 C 220.527344 91.636719 213.140625 87.128906 203.703125 85.488281 C 194.265625 83.847656 185.644531 85.898438 177.847656 91.636719 C 170.050781 97.375 165.539062 104.75 163.894531 114.179688 C 162.253906 123.605469 164.304688 132.210938 170.050781 140 C 175.796875 147.789062 183.183594 152.296875 192.621094 153.9375 C 193.03125 153.9375 193.445312 153.9375 193.855469 153.9375 L 129.425781 153.9375 L 118.34375 139.589844 L 133.9375 127.703125 L 127.78125 119.507812 L 103.570312 137.542969 L 115.882812 153.9375 L 99.46875 153.9375 C 99.46875 153.527344 99.46875 153.527344 99.46875 153.117188 C 99.46875 151.476562 99.054688 150.246094 98.234375 149.015625 L 90.027344 137.949219 Z M 194.265625 143.6875 C 187.699219 142.460938 182.363281 139.589844 178.257812 133.851562 C 174.15625 128.523438 172.925781 122.375 173.746094 115.816406 C 174.976562 109.261719 177.847656 103.933594 183.59375 99.832031 C 188.109375 96.554688 192.621094 95.324219 197.546875 95.324219 C 198.777344 95.324219 200.417969 95.324219 201.652344 95.734375 C 208.21875 96.964844 213.550781 99.832031 217.65625 105.570312 C 221.757812 110.898438 222.992188 117.046875 222.167969 123.605469 C 220.9375 130.164062 218.066406 135.492188 212.320312 139.589844 C 206.984375 143.277344 200.832031 144.917969 194.265625 143.6875 Z M 69.507812 143.277344 L 78.539062 143.277344 L 86.746094 154.34375 L 74.433594 154.34375 C 71.152344 154.34375 68.277344 157.214844 68.277344 160.492188 C 68.277344 163.773438 71.152344 166.640625 74.433594 166.640625 L 293.164062 166.640625 C 296.449219 166.640625 299.320312 163.773438 299.320312 160.492188 C 299.320312 157.214844 296.449219 154.34375 293.164062 154.34375 L 253.769531 154.34375 L 268.132812 143.277344 L 298.089844 143.277344 C 307.527344 143.277344 315.324219 151.066406 315.324219 160.492188 C 315.324219 169.921875 307.527344 177.707031 298.089844 177.707031 L 69.507812 177.707031 C 60.070312 177.707031 52.273438 169.921875 52.273438 160.492188 C 52.273438 151.066406 60.070312 143.277344 69.507812 143.277344 Z M 69.507812 143.277344 " fill-opacity="1" fill-rule="nonzero"/></g><path fill="#4154f1" d="M 244.332031 252.304688 C 233.25 252.304688 224.222656 261.320312 224.222656 272.386719 C 224.222656 283.453125 233.25 292.472656 244.332031 292.472656 C 255.410156 292.472656 264.4375 283.453125 264.4375 272.386719 C 264.4375 261.320312 255.410156 252.304688 244.332031 252.304688 Z M 244.332031 282.222656 C 238.996094 282.222656 234.480469 277.714844 234.480469 272.386719 C 234.480469 267.058594 238.996094 262.550781 244.332031 262.550781 C 249.664062 262.550781 254.179688 267.058594 254.179688 272.386719 C 254.179688 277.714844 250.074219 282.222656 244.332031 282.222656 Z M 244.332031 282.222656 " fill-opacity="1" fill-rule="nonzero"/><path fill="#4154f1" d="M 238.996094 48.191406 L 250.894531 63.765625 L 259.105469 57.207031 L 241.046875 33.84375 L 217.246094 51.878906 L 223.402344 60.074219 Z M 238.996094 48.191406 " fill-opacity="1" fill-rule="nonzero"/><path fill="#4154f1" d="M 267.722656 118.6875 L 291.523438 100.242188 L 273.878906 76.878906 L 265.667969 83.027344 L 277.160156 98.601562 L 261.566406 110.488281 Z M 267.722656 118.6875 " fill-opacity="1" fill-rule="nonzero"/></svg>