<svg xmlns="http://www.w3.org/2000/svg" xmlns:xlink="http://www.w3.org/1999/xlink" width="500" zoomAndPan="magnify" viewBox="0 0 375 374.999991" height="500" preserveAspectRatio="xMidYMid meet" version="1.0"><defs><clipPath id="4a896dd2a2"><path d="M 53.4375 0 L 321.9375 0 L 321.9375 375 L 53.4375 375 Z M 53.4375 0 " clip-rule="nonzero"/></clipPath></defs><path fill="#4154f1" d="M 300.089844 63.078125 C 300.089844 37.816406 279.507812 17.261719 254.207031 17.261719 C 228.910156 17.261719 208.328125 37.816406 208.328125 63.078125 C 208.328125 88.339844 228.910156 108.894531 254.207031 108.894531 C 279.507812 108.894531 300.089844 88.34375 300.089844 63.078125 Z M 216.128906 63.078125 C 216.128906 42.109375 233.210938 25.050781 254.207031 25.050781 C 275.207031 25.050781 292.289062 42.109375 292.289062 63.078125 C 292.289062 84.046875 275.207031 101.105469 254.207031 101.105469 C 233.210938 101.105469 216.128906 84.046875 216.128906 63.078125 Z M 216.128906 63.078125 " fill-opacity="1" fill-rule="nonzero"/><g clip-path="url(#4a896dd2a2)"><path fill="#4154f1" d="M 306.914062 170.914062 L 306.914062 150.808594 C 306.914062 142.21875 299.914062 135.230469 291.3125 135.230469 L 270.382812 135.230469 L 270.367188 124.042969 C 297.378906 116.910156 317.359375 92.277344 317.359375 63.082031 C 317.359375 28.308594 289.027344 0.015625 254.210938 0.015625 C 219.390625 0.015625 191.058594 28.308594 191.058594 63.082031 C 191.058594 92.191406 210.910156 116.746094 237.800781 123.972656 L 237.816406 135.230469 L 187.09375 135.230469 C 180.824219 112.078125 159.605469 94.996094 134.472656 94.996094 C 109.328125 94.996094 88.113281 112.078125 81.839844 135.230469 L 75.28125 135.230469 C 69.460938 135.230469 63.992188 137.496094 59.898438 141.59375 C 55.777344 145.691406 53.515625 151.152344 53.515625 156.964844 L 53.515625 359.40625 C 53.515625 367.996094 60.511719 374.984375 69.117188 374.984375 L 306.257812 374.984375 C 314.859375 374.984375 321.859375 367.996094 321.859375 359.40625 L 321.859375 186.480469 C 321.859375 178.105469 315.214844 171.257812 306.914062 170.914062 Z M 291.3125 143.019531 C 295.609375 143.019531 299.113281 146.519531 299.113281 150.808594 L 299.113281 153.070312 L 270.40625 153.070312 L 270.398438 143.019531 Z M 299.113281 160.859375 L 299.113281 170.902344 L 270.429688 170.902344 L 270.421875 160.859375 Z M 272.152344 216.539062 L 254.210938 247.566406 L 236.261719 216.539062 L 245.730469 216.539062 L 245.675781 178.691406 L 245.667969 170.898438 L 245.652344 160.859375 L 245.644531 153.070312 L 245.628906 143.019531 L 245.621094 135.230469 L 245.605469 125.554688 C 248.421875 125.9375 251.292969 126.140625 254.210938 126.140625 C 257.042969 126.140625 259.835938 125.953125 262.574219 125.585938 L 262.589844 135.230469 L 262.597656 143.019531 L 262.613281 153.070312 L 262.621094 160.859375 L 262.636719 170.898438 L 262.644531 178.691406 L 262.699219 216.539062 Z M 198.859375 63.082031 C 198.859375 32.601562 223.6875 7.804688 254.210938 7.804688 C 284.726562 7.804688 309.558594 32.601562 309.558594 63.082031 C 309.558594 88.320312 292.527344 109.65625 269.34375 116.246094 C 264.53125 117.617188 259.453125 118.351562 254.210938 118.351562 C 248.96875 118.351562 243.890625 117.617188 239.078125 116.246094 C 215.886719 109.65625 198.859375 88.320312 198.859375 63.082031 Z M 188.980469 149.441406 C 188.980469 147.265625 188.859375 145.125 188.601562 143.019531 L 237.828125 143.019531 L 237.839844 153.070312 L 203.726562 153.070312 L 203.726562 160.859375 L 237.855469 160.859375 L 237.863281 170.902344 L 184.558594 170.902344 C 187.40625 164.308594 188.980469 157.058594 188.980469 149.441406 Z M 88.199219 143.019531 C 88.5625 140.347656 89.164062 137.746094 89.96875 135.230469 C 96 116.433594 113.675781 102.785156 134.472656 102.785156 C 155.269531 102.785156 172.9375 116.433594 178.964844 135.230469 C 179.769531 137.746094 180.371094 140.347656 180.738281 143.019531 C 181.035156 145.121094 181.183594 147.265625 181.183594 149.4375 C 181.183594 157.175781 179.285156 164.472656 175.941406 170.898438 L 167.902344 170.898438 C 171.902344 164.707031 174.234375 157.339844 174.234375 149.4375 C 174.234375 127.542969 156.394531 109.726562 134.46875 109.726562 C 112.542969 109.726562 94.707031 127.539062 94.707031 149.4375 C 94.707031 157.339844 97.035156 164.707031 101.039062 170.898438 L 92.996094 170.898438 C 89.648438 164.472656 87.753906 157.175781 87.753906 149.4375 C 87.753906 147.265625 87.902344 145.125 88.199219 143.019531 Z M 148.777344 158.101562 C 148.082031 150.257812 142.015625 147.429688 135.5625 145.535156 C 132.769531 144.71875 131 143.886719 129.867188 143.019531 C 128.160156 141.726562 127.917969 140.394531 127.878906 139.039062 C 127.839844 137.628906 128.199219 136.3125 128.878906 135.230469 C 129.660156 133.953125 130.867188 132.988281 132.363281 132.542969 C 132.769531 132.417969 133.175781 132.332031 133.574219 132.285156 C 135.210938 132.074219 136.820312 132.574219 138.089844 133.703125 C 138.597656 134.148438 139.027344 134.660156 139.355469 135.230469 C 139.925781 136.183594 140.226562 137.28125 140.226562 138.410156 L 148.027344 138.410156 C 148.027344 137.324219 147.902344 136.257812 147.664062 135.230469 C 147.007812 132.394531 145.46875 129.808594 143.246094 127.855469 C 141.804688 126.59375 140.140625 125.65625 138.363281 125.089844 L 138.363281 121.816406 L 130.5625 121.816406 L 130.5625 124.957031 C 130.421875 124.996094 130.28125 125.035156 130.140625 125.074219 C 125.328125 126.507812 121.742188 130.433594 120.523438 135.230469 C 120.203125 136.515625 120.046875 137.871094 120.085938 139.257812 C 120.125 140.644531 120.34375 141.898438 120.703125 143.019531 C 122.886719 149.9375 130.304688 152.117188 133.363281 153.015625 C 140.171875 155.007812 140.8125 156.597656 141.007812 158.792969 C 141.328125 162.371094 139.097656 165.554688 135.828125 166.1875 C 135.65625 166.21875 135.484375 166.25 135.320312 166.273438 C 133.691406 166.46875 132.09375 165.960938 130.828125 164.839844 C 129.480469 163.648438 128.707031 161.925781 128.714844 160.132812 L 128.714844 159.761719 L 120.914062 159.738281 L 120.914062 160.109375 C 120.898438 164.136719 122.628906 167.984375 125.648438 170.667969 C 125.742188 170.746094 125.828125 170.820312 125.921875 170.898438 L 110.851562 170.898438 C 105.675781 165.226562 102.507812 157.699219 102.507812 149.4375 C 102.507812 131.835938 116.84375 117.519531 134.46875 117.519531 C 152.09375 117.519531 166.433594 131.835938 166.433594 149.4375 C 166.433594 157.695312 163.265625 165.226562 158.089844 170.898438 L 143.535156 170.898438 C 147.148438 167.925781 149.238281 163.195312 148.777344 158.101562 Z M 65.410156 147.101562 C 68.039062 144.46875 71.542969 143.019531 75.28125 143.019531 L 80.335938 143.019531 C 80.078125 145.125 79.953125 147.265625 79.953125 149.441406 C 79.953125 157.058594 81.527344 164.3125 84.375 170.902344 L 75.28125 170.902344 C 67.582031 170.902344 61.316406 164.652344 61.316406 156.964844 C 61.316406 153.242188 62.765625 149.734375 65.410156 147.101562 Z M 314.058594 359.40625 C 314.058594 363.707031 310.554688 367.195312 306.257812 367.195312 L 69.117188 367.195312 C 64.820312 367.195312 61.316406 363.707031 61.316406 359.40625 L 61.316406 173.617188 C 61.355469 173.648438 61.386719 173.679688 61.425781 173.703125 C 61.449219 173.726562 61.464844 173.742188 61.488281 173.757812 C 61.746094 173.96875 62.003906 174.171875 62.269531 174.367188 C 62.535156 174.5625 62.796875 174.746094 63.066406 174.933594 C 63.105469 174.964844 63.152344 174.996094 63.199219 175.019531 C 63.460938 175.199219 63.734375 175.371094 64.007812 175.535156 C 64.296875 175.710938 64.585938 175.882812 64.890625 176.046875 C 64.90625 176.054688 64.921875 176.070312 64.945312 176.070312 C 65.855469 176.570312 66.816406 177.003906 67.808594 177.363281 C 68.144531 177.488281 68.476562 177.605469 68.820312 177.707031 C 69.125 177.808594 69.4375 177.894531 69.757812 177.980469 C 69.835938 178.003906 69.914062 178.019531 69.992188 178.03125 C 70.257812 178.105469 70.53125 178.167969 70.804688 178.21875 C 70.898438 178.242188 70.988281 178.265625 71.082031 178.273438 C 71.269531 178.320312 71.464844 178.351562 71.660156 178.382812 C 71.824219 178.414062 71.988281 178.4375 72.160156 178.460938 C 72.339844 178.492188 72.527344 178.515625 72.714844 178.53125 C 72.871094 178.554688 73.027344 178.570312 73.191406 178.585938 C 73.503906 178.617188 73.8125 178.640625 74.132812 178.65625 L 74.171875 178.65625 C 74.539062 178.679688 74.90625 178.6875 75.28125 178.6875 L 237.878906 178.6875 L 237.917969 208.75 L 222.753906 208.75 L 254.210938 263.144531 L 285.664062 208.75 L 270.484375 208.75 L 270.445312 178.6875 L 306.257812 178.6875 C 310.554688 178.6875 314.058594 182.183594 314.058594 186.476562 Z M 314.058594 359.40625 " fill-opacity="1" fill-rule="nonzero"/></g><path fill="#4154f1" d="M 280.929688 309.800781 L 247.339844 309.800781 C 235.925781 309.800781 226.644531 319.070312 226.644531 330.464844 C 226.644531 341.863281 235.925781 351.132812 247.339844 351.132812 L 280.929688 351.132812 C 292.339844 351.132812 301.625 341.863281 301.625 330.464844 C 301.625 319.070312 292.339844 309.800781 280.929688 309.800781 Z M 280.929688 343.34375 L 247.339844 343.34375 C 240.230469 343.34375 234.445312 337.570312 234.445312 330.464844 C 234.445312 323.371094 240.230469 317.589844 247.339844 317.589844 L 280.929688 317.589844 C 288.042969 317.589844 293.824219 323.371094 293.824219 330.464844 C 293.824219 337.570312 288.042969 343.34375 280.929688 343.34375 Z M 280.929688 343.34375 " fill-opacity="1" fill-rule="nonzero"/><path fill="#4154f1" d="M 150.625 201.4375 L 150.617188 198.265625 L 118.050781 198.265625 L 118.058594 201.351562 L 118.175781 255.785156 L 103.011719 255.785156 L 134.472656 310.183594 L 165.921875 255.785156 L 150.742188 255.785156 Z M 134.472656 294.601562 L 116.53125 263.574219 L 125.992188 263.574219 L 125.867188 206.054688 L 142.832031 206.054688 L 142.957031 263.574219 L 152.414062 263.574219 Z M 134.472656 294.601562 " fill-opacity="1" fill-rule="nonzero"/><path fill="#4154f1" d="M 258.105469 95.027344 L 258.105469 90.828125 C 265.828125 88.976562 271.039062 81.558594 270.296875 73.277344 C 269.554688 64.980469 263.765625 61.632812 255.304688 59.148438 C 247.542969 56.882812 245.925781 54.316406 245.832031 50.929688 C 245.722656 47.035156 248.027344 43.707031 251.558594 42.664062 C 252.058594 42.515625 252.574219 42.40625 253.082031 42.335938 C 255.1875 42.074219 257.253906 42.71875 258.890625 44.160156 C 260.617188 45.679688 261.613281 47.867188 261.613281 50.167969 L 269.414062 50.167969 C 269.414062 45.632812 267.457031 41.308594 264.046875 38.308594 C 262.308594 36.785156 260.273438 35.683594 258.101562 35.070312 L 258.101562 30.753906 L 250.300781 30.753906 L 250.300781 34.9375 C 249.976562 35.015625 249.65625 35.101562 249.335938 35.195312 C 242.472656 37.234375 237.828125 43.792969 238.03125 51.148438 C 238.164062 55.9375 239.875 62.746094 253.101562 66.625 C 261.457031 69.070312 262.277344 71.214844 262.527344 73.972656 C 262.933594 78.503906 260.09375 82.53125 255.917969 83.34375 C 255.707031 83.382812 255.488281 83.414062 255.289062 83.441406 C 253.179688 83.699219 251.128906 83.046875 249.5 81.605469 C 247.78125 80.078125 246.800781 77.890625 246.800781 75.589844 L 246.808594 75.15625 L 239.007812 75.136719 L 239 75.574219 C 238.992188 80.101562 240.925781 84.425781 244.328125 87.433594 C 246.074219 88.980469 248.125 90.089844 250.300781 90.710938 L 250.300781 95.027344 Z M 258.105469 95.027344 " fill-opacity="1" fill-rule="nonzero"/><path fill="#4154f1" d="M 118.542969 32.273438 L 125.21875 32.273438 L 125.21875 69.8125 L 118.542969 69.8125 Z M 118.542969 32.273438 " fill-opacity="1" fill-rule="nonzero"/><path fill="#4154f1" d="M 118.542969 76.480469 L 125.21875 76.480469 L 125.21875 83.148438 L 118.542969 83.148438 Z M 118.542969 76.480469 " fill-opacity="1" fill-rule="nonzero"/><path fill="#4154f1" d="M 142.4375 45.605469 L 149.117188 45.605469 L 149.117188 83.148438 L 142.4375 83.148438 Z M 142.4375 45.605469 " fill-opacity="1" fill-rule="nonzero"/><path fill="#4154f1" d="M 142.4375 32.273438 L 149.117188 32.273438 L 149.117188 38.9375 L 142.4375 38.9375 Z M 142.4375 32.273438 " fill-opacity="1" fill-rule="nonzero"/></svg>