<svg xmlns="http://www.w3.org/2000/svg" xmlns:xlink="http://www.w3.org/1999/xlink" width="500" zoomAndPan="magnify" viewBox="0 0 375 374.999991" height="500" preserveAspectRatio="xMidYMid meet" version="1.0"><path fill="#4154f1" d="M 368.953125 97.023438 L 354.441406 97.023438 C 353.023438 84.160156 347.136719 72.617188 338.34375 63.9375 C 328.648438 54.367188 315.429688 48.308594 300.789062 47.8125 L 300.789062 6.046875 C 300.789062 2.710938 298.078125 0 294.742188 0 L 176.617188 0 C 173.277344 0 170.570312 2.710938 170.570312 6.046875 L 170.570312 42.308594 L 109.527344 42.308594 C 106.191406 42.308594 103.480469 45.019531 103.480469 48.355469 L 103.480469 97.039062 L 92.933594 97.039062 L 82.339844 46.753906 C 81.476562 42.636719 79.097656 38.914062 75.929688 36.195312 L 75.554688 35.867188 C 72.1875 33.113281 67.902344 31.398438 63.535156 31.398438 L 50.539062 31.398438 C 49.867188 30.5625 49.164062 29.765625 48.394531 29.015625 C 43.265625 23.945312 36.179688 20.8125 28.378906 20.8125 C 20.578125 20.8125 13.492188 23.953125 8.351562 29.015625 C 3.195312 34.117188 0 41.15625 0 48.910156 C 0 56.664062 3.195312 63.703125 8.363281 68.804688 C 13.492188 73.875 20.578125 77.007812 28.386719 77.007812 C 36.1875 77.007812 43.273438 73.867188 48.414062 68.804688 C 53.578125 63.703125 56.773438 56.671875 56.773438 48.910156 C 56.773438 47.054688 56.585938 45.242188 56.242188 43.492188 C 59.925781 43.492188 63.554688 43.492188 63.554688 43.492188 C 65.054688 43.492188 66.617188 44.15625 67.921875 45.214844 L 68.183594 45.414062 C 69.375 46.460938 70.257812 47.792969 70.546875 49.210938 L 83.042969 108.507812 C 83.0625 108.582031 83.082031 108.648438 83.101562 108.722656 C 86.203125 123.589844 89.429688 138.535156 92.652344 153.507812 C 92.632812 153.722656 92.617188 153.9375 92.617188 154.164062 C 92.617188 155.277344 92.925781 156.320312 93.449219 157.21875 C 96.804688 172.828125 100.152344 188.464844 103.332031 204.066406 C 103.257812 204.449219 103.210938 204.851562 103.210938 205.265625 C 103.210938 206.53125 103.601562 207.703125 104.257812 208.667969 C 106.398438 219.28125 108.460938 229.875 110.390625 240.429688 C 111.167969 244.171875 112.761719 247.707031 114.917969 250.78125 C 108.132812 251.933594 102.027344 255.160156 97.332031 259.800781 C 91.378906 265.679688 87.683594 273.789062 87.683594 282.695312 C 87.683594 291.601562 91.378906 299.710938 97.332031 305.585938 C 103.257812 311.4375 111.421875 315.066406 120.394531 315.066406 L 345.601562 315.066406 C 348.9375 315.066406 351.648438 312.355469 351.648438 309.019531 C 351.648438 305.679688 348.9375 302.972656 345.601562 302.972656 L 120.382812 302.972656 C 114.695312 302.972656 109.519531 300.675781 105.777344 296.980469 C 102.066406 293.316406 99.757812 288.253906 99.757812 282.683594 C 99.757812 277.117188 102.066406 272.054688 105.777344 268.386719 C 109.519531 264.695312 114.695312 262.398438 120.382812 262.398438 L 321.5625 262.398438 C 327.367188 262.398438 333.085938 259.867188 337.632812 255.796875 C 342.019531 251.859375 345.367188 246.414062 346.601562 240.414062 L 349.800781 224.992188 L 349.949219 224.410156 L 353.570312 206.945312 C 353.652344 206.652344 353.71875 206.351562 353.757812 206.042969 L 364.164062 155.867188 C 364.257812 155.570312 364.3125 155.25 364.359375 154.929688 L 374.757812 104.804688 C 374.925781 104.25 375.007812 103.667969 375.007812 103.070312 C 375 99.730469 372.289062 97.023438 368.953125 97.023438 Z M 39.945312 60.207031 C 37.003906 63.113281 32.90625 64.914062 28.378906 64.914062 C 23.851562 64.914062 19.761719 63.113281 16.808594 60.207031 C 13.894531 57.328125 12.085938 53.335938 12.085938 48.910156 C 12.085938 44.492188 13.894531 40.5 16.808594 37.613281 C 19.753906 34.707031 23.851562 32.90625 28.378906 32.90625 C 32.90625 32.90625 36.992188 34.707031 39.9375 37.613281 C 42.851562 40.492188 44.664062 44.484375 44.664062 48.910156 C 44.671875 53.335938 42.863281 57.328125 39.945312 60.207031 Z M 353.457031 148.125 L 300.328125 148.125 L 304.976562 109.117188 L 361.546875 109.117188 Z M 342.863281 199.226562 L 294.242188 199.226562 L 298.894531 160.21875 L 350.953125 160.21875 Z M 234.542969 250.320312 L 234.542969 211.3125 L 280.640625 211.3125 L 275.992188 250.320312 Z M 127.386719 246.84375 C 124.835938 244.554688 122.898438 241.414062 122.183594 237.984375 C 120.121094 229.164062 118.152344 220.257812 116.230469 211.320312 L 164.210938 211.320312 L 168.863281 250.332031 L 135.429688 250.332031 C 132.65625 250.320312 129.777344 248.992188 127.386719 246.84375 Z M 222.488281 109.117188 C 222.488281 116.839844 222.488281 131.242188 222.488281 148.125 L 168.84375 148.125 L 164.195312 109.117188 Z M 292.808594 109.117188 L 288.167969 148.125 L 234.535156 148.125 L 234.535156 109.117188 Z M 222.488281 160.21875 C 222.488281 172.96875 222.488281 186.476562 222.488281 199.226562 L 174.9375 199.226562 L 170.289062 160.21875 Z M 162.769531 199.226562 L 113.664062 199.226562 C 110.953125 186.261719 108.328125 173.242188 105.742188 160.21875 L 158.117188 160.21875 Z M 181.023438 250.320312 L 176.371094 211.3125 L 222.496094 211.3125 C 222.496094 228.195312 222.496094 242.597656 222.496094 250.320312 Z M 234.535156 199.226562 L 234.535156 160.21875 L 286.726562 160.21875 L 282.074219 199.226562 Z M 342.253906 97.023438 L 255.414062 97.03125 C 256.761719 87.515625 261.226562 78.992188 267.777344 72.535156 C 275.71875 64.695312 286.695312 59.851562 298.835938 59.851562 C 310.976562 59.851562 321.957031 64.695312 329.898438 72.535156 C 336.429688 78.992188 340.902344 87.515625 342.253906 97.023438 Z M 288.703125 48.683594 C 279.910156 50.277344 271.835938 53.898438 264.992188 59.054688 L 264.992188 12.09375 L 288.703125 12.09375 Z M 182.671875 12.09375 L 252.898438 12.09375 L 252.898438 71.53125 C 247.6875 78.929688 244.265625 87.628906 243.226562 97.03125 L 182.671875 97.03125 Z M 115.574219 54.402344 L 170.578125 54.402344 L 170.578125 97.03125 L 115.574219 97.03125 C 115.574219 84.019531 115.574219 54.402344 115.574219 54.402344 Z M 152.035156 109.117188 L 156.683594 148.125 L 103.339844 148.125 C 100.742188 135.054688 98.148438 122.023438 95.476562 109.117188 Z M 338.304688 221.242188 C 338.164062 221.644531 338.070312 222.066406 338.015625 222.507812 L 334.800781 237.984375 C 334.085938 241.425781 332.148438 244.566406 329.597656 246.84375 C 327.207031 248.992188 324.328125 250.320312 321.5625 250.320312 L 288.160156 250.320312 L 292.808594 211.3125 L 340.367188 211.3125 Z M 140.015625 321.5625 C 132.601562 321.5625 125.867188 324.542969 120.984375 329.363281 C 116.070312 334.210938 113.035156 340.902344 113.035156 348.28125 C 113.035156 355.660156 116.070312 362.351562 120.984375 367.199219 C 125.859375 372.019531 132.589844 375 140.015625 375 C 147.429688 375 154.164062 372.019531 159.046875 367.199219 C 163.960938 362.351562 166.996094 355.660156 166.996094 348.28125 C 166.996094 340.902344 163.960938 334.21875 159.046875 329.363281 C 154.164062 324.542969 147.429688 321.5625 140.015625 321.5625 Z M 150.589844 358.601562 C 147.898438 361.265625 144.160156 362.90625 140.015625 362.90625 C 135.871094 362.90625 132.132812 361.257812 129.441406 358.601562 C 126.777344 355.976562 125.128906 352.320312 125.128906 348.28125 C 125.128906 344.242188 126.777344 340.59375 129.441406 337.960938 C 132.132812 335.296875 135.871094 333.65625 140.015625 333.65625 C 144.160156 333.65625 147.898438 335.304688 150.589844 337.960938 C 153.253906 340.585938 154.902344 344.242188 154.902344 348.28125 C 154.902344 352.320312 153.253906 355.976562 150.589844 358.601562 Z M 299.304688 321.5625 C 291.890625 321.5625 285.160156 324.542969 280.273438 329.363281 C 275.363281 334.210938 272.324219 340.902344 272.324219 348.28125 C 272.324219 355.660156 275.363281 362.351562 280.273438 367.199219 C 285.160156 372.019531 291.890625 375 299.304688 375 C 306.722656 375 313.453125 372.019531 318.335938 367.199219 C 323.25 362.351562 326.289062 355.660156 326.289062 348.28125 C 326.289062 340.902344 323.25 334.21875 318.335938 329.363281 C 313.453125 324.542969 306.710938 321.5625 299.304688 321.5625 Z M 309.871094 358.601562 C 307.179688 361.265625 303.441406 362.90625 299.296875 362.90625 C 295.152344 362.90625 291.414062 361.257812 288.722656 358.601562 C 286.058594 355.976562 284.410156 352.320312 284.410156 348.28125 C 284.410156 344.242188 286.058594 340.59375 288.722656 337.960938 C 291.414062 335.296875 295.152344 333.65625 299.296875 333.65625 C 303.441406 333.65625 307.179688 335.304688 309.871094 337.960938 C 312.535156 340.585938 314.183594 344.242188 314.183594 348.28125 C 314.183594 352.320312 312.535156 355.976562 309.871094 358.601562 Z M 309.871094 358.601562 " fill-opacity="1" fill-rule="nonzero"/></svg>