<svg xmlns="http://www.w3.org/2000/svg" xmlns:xlink="http://www.w3.org/1999/xlink" width="500" zoomAndPan="magnify" viewBox="0 0 375 374.999991" height="500" preserveAspectRatio="xMidYMid meet" version="1.0"><defs><g/><clipPath id="470b18497e"><path d="M 20.941406 75 L 177 75 L 177 374.882812 L 20.941406 374.882812 Z M 20.941406 75 " clip-rule="nonzero"/></clipPath><clipPath id="42d4b4099a"><path d="M 231 225 L 353.941406 225 L 353.941406 374.882812 L 231 374.882812 Z M 231 225 " clip-rule="nonzero"/></clipPath><clipPath id="9eedbd2d10"><path d="M 165 41.882812 L 353.941406 41.882812 L 353.941406 214 L 165 214 Z M 165 41.882812 " clip-rule="nonzero"/></clipPath><clipPath id="1b059f7c03"><path d="M 20.941406 41.882812 L 88 41.882812 L 88 109 L 20.941406 109 Z M 20.941406 41.882812 " clip-rule="nonzero"/></clipPath><clipPath id="5ee1a2a901"><path d="M 154 286 L 231 286 L 231 374.882812 L 154 374.882812 Z M 154 286 " clip-rule="nonzero"/></clipPath></defs><g clip-path="url(#470b18497e)"><path fill="#4154f1" d="M 32.042969 356.570312 C 32.042969 355.113281 32.457031 353.722656 33.289062 352.542969 L 35.71875 348.867188 C 40.574219 341.582031 43.140625 333.050781 43.140625 324.238281 L 43.140625 211.992188 C 43.140625 198.601562 46.886719 185.488281 53.894531 174.042969 C 60.347656 163.566406 69.433594 154.964844 80.1875 148.929688 L 65.480469 212.617188 C 65.132812 214.28125 65.480469 216.015625 66.519531 217.332031 C 67.5625 218.652344 69.15625 219.414062 70.890625 219.414062 L 93.09375 219.414062 C 95.660156 219.414062 97.949219 217.609375 98.503906 215.113281 L 104.191406 190.414062 L 109.878906 215.113281 C 110.4375 217.609375 112.726562 219.414062 115.292969 219.414062 L 137.492188 219.414062 C 139.15625 219.414062 140.753906 218.652344 141.863281 217.332031 C 142.902344 216.015625 143.320312 214.28125 142.902344 212.617188 L 128.195312 148.929688 C 138.949219 154.894531 147.96875 163.496094 154.488281 174.042969 C 161.566406 185.421875 165.242188 198.53125 165.242188 211.992188 L 165.242188 252.785156 L 176.34375 252.785156 L 176.34375 211.992188 C 176.34375 196.519531 172.039062 181.398438 163.921875 168.214844 C 156.570312 156.351562 146.441406 146.570312 134.371094 139.703125 C 140.058594 130.199219 143.042969 119.445312 143.042969 108.34375 L 143.042969 80.734375 C 143.042969 77.679688 140.542969 75.183594 137.492188 75.183594 L 98.640625 75.183594 L 98.640625 86.285156 L 131.941406 86.285156 L 131.941406 108.34375 C 131.941406 118.265625 129.027344 127.839844 123.546875 136.027344 L 123.410156 136.234375 L 84.976562 136.234375 L 84.835938 136.027344 C 79.355469 127.839844 76.441406 118.195312 76.441406 108.34375 L 76.441406 102.933594 L 65.34375 102.933594 L 65.34375 108.34375 C 65.34375 119.445312 68.324219 130.265625 74.015625 139.703125 C 61.941406 146.570312 51.8125 156.351562 44.460938 168.214844 C 36.34375 181.398438 32.042969 196.519531 32.042969 211.992188 L 32.042969 324.238281 C 32.042969 330.832031 30.097656 337.214844 26.421875 342.695312 L 23.996094 346.371094 C 21.984375 349.421875 20.941406 352.890625 20.941406 356.570312 C 20.941406 366.699219 29.199219 374.882812 39.257812 374.882812 L 159.691406 374.882812 L 159.691406 363.785156 L 39.257812 363.785156 C 35.300781 363.785156 32.042969 360.523438 32.042969 356.570312 Z M 88.652344 208.382812 L 77.898438 208.382812 L 91.980469 147.332031 L 102.804688 147.332031 Z M 119.730469 208.382812 L 109.878906 165.855469 L 114.183594 147.332031 L 116.472656 147.332031 L 130.554688 208.382812 Z M 119.730469 208.382812 " fill-opacity="1" fill-rule="nonzero"/></g><g clip-path="url(#42d4b4099a)"><path fill="#4154f1" d="M 334.585938 233.773438 C 323.347656 228.15625 308.5 225.035156 292.890625 225.035156 C 277.28125 225.035156 262.4375 228.15625 251.199219 233.773438 C 238.710938 240.019531 231.84375 248.761719 231.84375 258.332031 C 231.84375 263.257812 233.644531 267.976562 237.113281 272.207031 C 233.644531 276.511719 231.84375 281.226562 231.84375 286.082031 C 231.84375 291.007812 233.644531 295.726562 237.113281 299.957031 C 233.644531 304.261719 231.84375 308.976562 231.84375 313.832031 C 231.84375 318.757812 233.644531 323.476562 237.113281 327.707031 C 233.644531 332.011719 231.84375 336.726562 231.84375 341.582031 C 231.84375 351.226562 238.710938 359.96875 251.199219 366.140625 C 262.4375 371.761719 277.28125 374.882812 292.890625 374.882812 C 308.5 374.882812 323.347656 371.761719 334.585938 366.140625 C 347.074219 359.898438 353.941406 351.15625 353.941406 341.582031 C 353.941406 336.726562 352.136719 332.011719 348.667969 327.707031 C 352.136719 323.476562 353.941406 318.757812 353.941406 313.832031 C 353.941406 308.976562 352.136719 304.261719 348.667969 299.957031 C 352.136719 295.726562 353.941406 291.007812 353.941406 286.082031 C 353.941406 281.226562 352.136719 276.511719 348.667969 272.207031 C 352.136719 267.976562 353.941406 263.257812 353.941406 258.332031 C 353.941406 248.691406 347.074219 239.949219 334.585938 233.773438 Z M 342.84375 286.082031 C 342.84375 296.558594 322.308594 308.285156 292.890625 308.285156 C 263.476562 308.285156 242.941406 296.558594 242.941406 286.082031 C 242.941406 283.933594 243.773438 281.78125 245.4375 279.632812 C 247.171875 280.8125 249.117188 281.921875 251.199219 282.960938 C 262.4375 288.582031 277.28125 291.703125 292.890625 291.703125 C 308.5 291.703125 323.347656 288.582031 334.585938 282.960938 C 336.667969 281.921875 338.609375 280.8125 340.34375 279.632812 C 342.007812 281.78125 342.84375 283.933594 342.84375 286.082031 Z M 342.84375 313.832031 C 342.84375 324.308594 322.308594 336.035156 292.890625 336.035156 C 263.476562 336.035156 242.941406 324.308594 242.941406 313.832031 C 242.941406 311.683594 243.773438 309.53125 245.4375 307.382812 C 247.171875 308.5625 249.117188 309.671875 251.199219 310.710938 C 262.4375 316.332031 277.28125 319.453125 292.890625 319.453125 C 308.5 319.453125 323.347656 316.332031 334.585938 310.710938 C 336.667969 309.671875 338.609375 308.5625 340.34375 307.382812 C 342.007812 309.53125 342.84375 311.683594 342.84375 313.832031 Z M 292.890625 236.132812 C 322.308594 236.132812 342.84375 247.859375 342.84375 258.332031 C 342.84375 268.808594 322.308594 280.535156 292.890625 280.535156 C 263.476562 280.535156 242.941406 268.808594 242.941406 258.332031 C 242.941406 247.859375 263.476562 236.132812 292.890625 236.132812 Z M 292.890625 363.785156 C 263.476562 363.785156 242.941406 352.058594 242.941406 341.582031 C 242.941406 339.433594 243.773438 337.28125 245.4375 335.132812 C 247.171875 336.3125 249.117188 337.421875 251.199219 338.460938 C 262.4375 344.082031 277.28125 347.203125 292.890625 347.203125 C 308.5 347.203125 323.347656 344.082031 334.585938 338.460938 C 336.667969 337.421875 338.609375 336.3125 340.34375 335.132812 C 342.007812 337.28125 342.84375 339.433594 342.84375 341.582031 C 342.84375 352.058594 322.308594 363.785156 292.890625 363.785156 Z M 292.890625 363.785156 " fill-opacity="1" fill-rule="nonzero"/></g><g clip-path="url(#9eedbd2d10)"><path fill="#4154f1" d="M 331.742188 41.882812 L 187.441406 41.882812 C 175.230469 41.882812 165.242188 51.875 165.242188 64.082031 L 165.242188 152.882812 L 176.34375 152.882812 L 176.34375 64.082031 C 176.34375 57.980469 181.335938 52.984375 187.441406 52.984375 L 312.523438 52.984375 C 310.652344 56.246094 309.542969 60.058594 309.542969 64.082031 L 309.542969 213.933594 L 320.640625 213.933594 L 320.640625 80.734375 L 348.390625 80.734375 C 351.445312 80.734375 353.941406 78.234375 353.941406 75.183594 L 353.941406 64.082031 C 353.941406 51.875 343.953125 41.882812 331.742188 41.882812 Z M 342.84375 69.632812 L 320.640625 69.632812 L 320.640625 64.082031 C 320.640625 57.980469 325.636719 52.984375 331.742188 52.984375 C 337.847656 52.984375 342.84375 57.980469 342.84375 64.082031 Z M 342.84375 69.632812 " fill-opacity="1" fill-rule="nonzero"/></g><path fill="#4154f1" d="M 265.140625 86.285156 C 265.140625 74.074219 255.152344 64.082031 242.941406 64.082031 C 230.730469 64.082031 220.742188 74.074219 220.742188 86.285156 C 220.742188 98.492188 230.730469 108.484375 242.941406 108.484375 C 255.152344 108.484375 265.140625 98.492188 265.140625 86.285156 Z M 231.84375 86.285156 C 231.84375 80.179688 236.835938 75.183594 242.941406 75.183594 C 249.046875 75.183594 254.042969 80.179688 254.042969 86.285156 C 254.042969 92.386719 249.046875 97.382812 242.941406 97.382812 C 236.835938 97.382812 231.84375 92.386719 231.84375 86.285156 Z M 231.84375 86.285156 " fill-opacity="1" fill-rule="nonzero"/><path fill="#4154f1" d="M 209.640625 119.582031 L 276.242188 119.582031 L 276.242188 130.683594 L 209.640625 130.683594 Z M 209.640625 119.582031 " fill-opacity="1" fill-rule="nonzero"/><path fill="#4154f1" d="M 192.992188 141.785156 L 237.390625 141.785156 L 237.390625 152.882812 L 192.992188 152.882812 Z M 192.992188 141.785156 " fill-opacity="1" fill-rule="nonzero"/><path fill="#4154f1" d="M 248.492188 141.785156 L 292.890625 141.785156 L 292.890625 152.882812 L 248.492188 152.882812 Z M 248.492188 141.785156 " fill-opacity="1" fill-rule="nonzero"/><path fill="#4154f1" d="M 192.992188 163.984375 L 292.890625 163.984375 L 292.890625 175.082031 L 192.992188 175.082031 Z M 192.992188 163.984375 " fill-opacity="1" fill-rule="nonzero"/><path fill="#4154f1" d="M 192.992188 186.183594 L 292.890625 186.183594 L 292.890625 197.285156 L 192.992188 197.285156 Z M 192.992188 186.183594 " fill-opacity="1" fill-rule="nonzero"/><g clip-path="url(#1b059f7c03)"><path fill="#4154f1" d="M 26.492188 80.734375 C 38.703125 80.734375 48.691406 90.722656 48.691406 102.933594 C 48.691406 105.984375 51.1875 108.484375 54.242188 108.484375 C 57.292969 108.484375 59.792969 105.984375 59.792969 102.933594 C 59.792969 90.722656 69.78125 80.734375 81.992188 80.734375 C 85.042969 80.734375 87.542969 78.234375 87.542969 75.183594 C 87.542969 72.132812 85.042969 69.632812 81.992188 69.632812 C 69.78125 69.632812 59.792969 59.644531 59.792969 47.433594 C 59.792969 44.382812 57.292969 41.882812 54.242188 41.882812 C 51.1875 41.882812 48.691406 44.382812 48.691406 47.433594 C 48.691406 59.644531 38.703125 69.632812 26.492188 69.632812 C 23.4375 69.632812 20.941406 72.132812 20.941406 75.183594 C 20.941406 78.234375 23.4375 80.734375 26.492188 80.734375 Z M 54.242188 65.816406 C 56.738281 69.496094 59.859375 72.6875 63.609375 75.183594 C 59.929688 77.679688 56.738281 80.804688 54.242188 84.550781 C 51.746094 80.871094 48.621094 77.679688 44.875 75.183594 C 48.621094 72.6875 51.746094 69.5625 54.242188 65.816406 Z M 54.242188 65.816406 " fill-opacity="1" fill-rule="nonzero"/></g><path fill="#4154f1" d="M 147.273438 243.695312 C 146.09375 242.238281 144.222656 241.542969 142.347656 241.753906 C 140.476562 241.960938 138.878906 243.140625 138.046875 244.804688 L 114.945312 291.007812 L 97.878906 261.179688 C 96.839844 259.375 94.894531 258.332031 92.8125 258.402344 C 90.734375 258.472656 88.859375 259.722656 88.027344 261.59375 L 54.726562 333.746094 L 64.785156 338.390625 L 93.578125 276.023438 L 110.4375 305.507812 C 111.476562 307.3125 113.347656 308.351562 115.429688 308.285156 C 117.441406 308.214844 119.316406 307.035156 120.21875 305.230469 L 144.152344 257.292969 L 166.492188 284.070312 C 167.53125 285.320312 169.058594 286.015625 170.652344 286.082031 C 172.316406 286.082031 173.84375 285.460938 174.886719 284.210938 L 219.285156 234.261719 L 210.960938 226.90625 L 170.859375 272.070312 Z M 147.273438 243.695312 " fill-opacity="1" fill-rule="nonzero"/><path fill="#4154f1" d="M 192.992188 208.382812 L 254.042969 208.382812 L 254.042969 219.484375 L 192.992188 219.484375 Z M 192.992188 208.382812 " fill-opacity="1" fill-rule="nonzero"/><g clip-path="url(#5ee1a2a901)"><path fill="#4154f1" d="M 198.542969 363.785156 C 180.15625 363.785156 165.242188 348.867188 165.242188 330.484375 C 165.242188 312.097656 180.15625 297.183594 198.542969 297.183594 C 205.410156 297.183594 212 299.265625 217.550781 303.148438 L 223.933594 294.0625 C 216.441406 288.859375 207.699219 286.082031 198.542969 286.082031 C 174.050781 286.082031 154.140625 305.996094 154.140625 330.484375 C 154.140625 354.972656 174.050781 374.882812 198.542969 374.882812 C 210.542969 374.882812 221.851562 370.167969 230.246094 361.5625 L 222.335938 353.792969 C 216.023438 360.246094 207.5625 363.785156 198.542969 363.785156 Z M 198.542969 363.785156 " fill-opacity="1" fill-rule="nonzero"/></g><path fill="#4154f1" d="M 198.542969 319.382812 C 201.246094 319.382812 203.882812 320.355469 205.964844 322.226562 L 213.386719 313.972656 C 209.296875 310.296875 204.09375 308.285156 198.609375 308.285156 C 186.402344 308.285156 176.410156 318.273438 176.410156 330.484375 C 176.410156 335.964844 178.421875 341.238281 182.101562 345.261719 L 190.355469 337.835938 C 188.550781 335.824219 187.511719 333.1875 187.511719 330.414062 C 187.441406 324.378906 192.4375 319.382812 198.542969 319.382812 Z M 198.542969 319.382812 " fill-opacity="1" fill-rule="nonzero"/><g fill="#4154f1" fill-opacity="1"><g transform="translate(54.070313, 38.75)"><g><path d="M 8.890625 0 L 3.71875 0 L 3.71875 -28.5625 L 11.09375 -28.5625 L 18.328125 -7.5625 L 18.734375 -7.5625 L 25.921875 -28.5625 L 33.125 -28.5625 L 33.125 0 L 27.78125 0 L 27.78125 -18.875 L 27.28125 -18.953125 L 20.6875 0 L 15.984375 0 L 9.375 -18.953125 L 8.890625 -18.875 Z M 8.890625 0 "/></g></g></g><g fill="#4154f1" fill-opacity="1"><g transform="translate(90.922186, 38.75)"><g><path d="M 9.859375 0.40625 C 7.441406 0.40625 5.65625 -0.253906 4.5 -1.578125 C 3.351562 -2.898438 2.78125 -4.796875 2.78125 -7.265625 L 2.78125 -21.546875 L 8.1875 -21.546875 L 8.1875 -7.953125 C 8.1875 -6.640625 8.46875 -5.675781 9.03125 -5.0625 C 9.601562 -4.457031 10.476562 -4.15625 11.65625 -4.15625 C 13.15625 -4.15625 14.320312 -4.644531 15.15625 -5.625 C 15.988281 -6.613281 16.40625 -8.164062 16.40625 -10.28125 L 16.40625 -21.546875 L 21.8125 -21.546875 L 21.8125 0 L 16.625 0 L 16.625 -3.171875 L 16.21875 -3.265625 C 15.519531 -2.023438 14.671875 -1.101562 13.671875 -0.5 C 12.679688 0.101562 11.410156 0.40625 9.859375 0.40625 Z M 9.859375 0.40625 "/></g></g></g><g fill="#4154f1" fill-opacity="1"><g transform="translate(115.841626, 38.75)"><g><path d="M 14.859375 -5.140625 L 16.265625 -1.140625 C 15.679688 -0.648438 14.945312 -0.269531 14.0625 0 C 13.175781 0.269531 12.175781 0.40625 11.0625 0.40625 C 8.726562 0.40625 6.953125 -0.226562 5.734375 -1.5 C 4.523438 -2.769531 3.921875 -4.613281 3.921875 -7.03125 L 3.921875 -17.265625 L 0.640625 -17.265625 L 0.640625 -21.5625 L 3.921875 -21.5625 L 3.921875 -25.765625 L 9.34375 -26.640625 L 9.34375 -21.5625 L 15.453125 -21.5625 L 15.453125 -17.265625 L 9.34375 -17.265625 L 9.34375 -7.421875 C 9.34375 -6.359375 9.5625 -5.582031 10 -5.09375 C 10.445312 -4.601562 11.09375 -4.359375 11.9375 -4.359375 C 12.894531 -4.359375 13.734375 -4.617188 14.453125 -5.140625 Z M 14.859375 -5.140625 "/></g></g></g><g fill="#4154f1" fill-opacity="1"><g transform="translate(132.578277, 38.75)"><g><path d="M 9.859375 0.40625 C 7.441406 0.40625 5.65625 -0.253906 4.5 -1.578125 C 3.351562 -2.898438 2.78125 -4.796875 2.78125 -7.265625 L 2.78125 -21.546875 L 8.1875 -21.546875 L 8.1875 -7.953125 C 8.1875 -6.640625 8.46875 -5.675781 9.03125 -5.0625 C 9.601562 -4.457031 10.476562 -4.15625 11.65625 -4.15625 C 13.15625 -4.15625 14.320312 -4.644531 15.15625 -5.625 C 15.988281 -6.613281 16.40625 -8.164062 16.40625 -10.28125 L 16.40625 -21.546875 L 21.8125 -21.546875 L 21.8125 0 L 16.625 0 L 16.625 -3.171875 L 16.21875 -3.265625 C 15.519531 -2.023438 14.671875 -1.101562 13.671875 -0.5 C 12.679688 0.101562 11.410156 0.40625 9.859375 0.40625 Z M 9.859375 0.40625 "/></g></g></g><g fill="#4154f1" fill-opacity="1"><g transform="translate(157.497717, 38.75)"><g><path d="M 8.40625 0.40625 C 7.019531 0.40625 5.816406 0.15625 4.796875 -0.34375 C 3.785156 -0.851562 3.003906 -1.597656 2.453125 -2.578125 C 1.910156 -3.566406 1.640625 -4.753906 1.640625 -6.140625 C 1.640625 -7.410156 1.910156 -8.476562 2.453125 -9.34375 C 3.003906 -10.207031 3.851562 -10.914062 5 -11.46875 C 6.144531 -12.03125 7.644531 -12.457031 9.5 -12.75 C 10.78125 -12.957031 11.753906 -13.1875 12.421875 -13.4375 C 13.097656 -13.6875 13.550781 -13.96875 13.78125 -14.28125 C 14.019531 -14.59375 14.140625 -14.988281 14.140625 -15.46875 C 14.140625 -16.15625 13.898438 -16.679688 13.421875 -17.046875 C 12.941406 -17.410156 12.140625 -17.59375 11.015625 -17.59375 C 9.816406 -17.59375 8.675781 -17.328125 7.59375 -16.796875 C 6.519531 -16.265625 5.582031 -15.5625 4.78125 -14.6875 L 4.390625 -14.6875 L 2.125 -18.109375 C 3.21875 -19.316406 4.550781 -20.257812 6.125 -20.9375 C 7.707031 -21.613281 9.429688 -21.953125 11.296875 -21.953125 C 14.140625 -21.953125 16.195312 -21.347656 17.46875 -20.140625 C 18.75 -18.929688 19.390625 -17.210938 19.390625 -14.984375 L 19.390625 -5.625 C 19.390625 -4.664062 19.816406 -4.1875 20.671875 -4.1875 C 20.992188 -4.1875 21.3125 -4.242188 21.625 -4.359375 L 21.890625 -4.28125 L 22.28125 -0.515625 C 21.988281 -0.316406 21.570312 -0.15625 21.03125 -0.03125 C 20.5 0.09375 19.914062 0.15625 19.28125 0.15625 C 17.988281 0.15625 16.976562 -0.0859375 16.25 -0.578125 C 15.53125 -1.078125 15.015625 -1.851562 14.703125 -2.90625 L 14.296875 -2.953125 C 13.242188 -0.710938 11.28125 0.40625 8.40625 0.40625 Z M 10.125 -3.640625 C 11.375 -3.640625 12.367188 -4.054688 13.109375 -4.890625 C 13.859375 -5.734375 14.234375 -6.90625 14.234375 -8.40625 L 14.234375 -10.59375 L 13.875 -10.671875 C 13.539062 -10.410156 13.109375 -10.191406 12.578125 -10.015625 C 12.054688 -9.835938 11.300781 -9.664062 10.3125 -9.5 C 9.144531 -9.300781 8.300781 -8.960938 7.78125 -8.484375 C 7.269531 -8.015625 7.015625 -7.34375 7.015625 -6.46875 C 7.015625 -5.539062 7.285156 -4.835938 7.828125 -4.359375 C 8.378906 -3.878906 9.144531 -3.640625 10.125 -3.640625 Z M 10.125 -3.640625 "/></g></g></g><g fill="#4154f1" fill-opacity="1"><g transform="translate(180.210347, 38.75)"><g><path d="M 8.953125 0.40625 C 7.003906 0.40625 5.519531 -0.113281 4.5 -1.15625 C 3.476562 -2.207031 2.96875 -3.800781 2.96875 -5.9375 L 2.96875 -30.203125 L 8.375 -30.203125 L 8.375 -6.15625 C 8.375 -4.84375 8.921875 -4.1875 10.015625 -4.1875 C 10.328125 -4.1875 10.660156 -4.238281 11.015625 -4.34375 L 11.296875 -4.265625 L 11.78125 -0.09375 C 11.476562 0.0625 11.078125 0.179688 10.578125 0.265625 C 10.085938 0.359375 9.546875 0.40625 8.953125 0.40625 Z M 8.953125 0.40625 "/></g></g></g><g fill="#4154f1" fill-opacity="1"><g transform="translate(192.591949, 38.75)"><g/></g></g><g fill="#4154f1" fill-opacity="1"><g transform="translate(202.024627, 38.75)"><g><path d="M 21.8125 -28.5625 L 21.8125 -23.828125 L 9.359375 -23.828125 L 9.359375 -16.265625 L 20.671875 -16.265625 L 20.671875 -11.609375 L 9.359375 -11.609375 L 9.359375 0 L 3.71875 0 L 3.71875 -28.5625 Z M 21.8125 -28.5625 "/></g></g></g><g fill="#4154f1" fill-opacity="1"><g transform="translate(225.108308, 38.75)"><g><path d="M 9.859375 0.40625 C 7.441406 0.40625 5.65625 -0.253906 4.5 -1.578125 C 3.351562 -2.898438 2.78125 -4.796875 2.78125 -7.265625 L 2.78125 -21.546875 L 8.1875 -21.546875 L 8.1875 -7.953125 C 8.1875 -6.640625 8.46875 -5.675781 9.03125 -5.0625 C 9.601562 -4.457031 10.476562 -4.15625 11.65625 -4.15625 C 13.15625 -4.15625 14.320312 -4.644531 15.15625 -5.625 C 15.988281 -6.613281 16.40625 -8.164062 16.40625 -10.28125 L 16.40625 -21.546875 L 21.8125 -21.546875 L 21.8125 0 L 16.625 0 L 16.625 -3.171875 L 16.21875 -3.265625 C 15.519531 -2.023438 14.671875 -1.101562 13.671875 -0.5 C 12.679688 0.101562 11.410156 0.40625 9.859375 0.40625 Z M 9.859375 0.40625 "/></g></g></g><g fill="#4154f1" fill-opacity="1"><g transform="translate(250.027759, 38.75)"><g><path d="M 3.109375 0 L 3.109375 -21.546875 L 8.296875 -21.546875 L 8.296875 -18.375 L 8.71875 -18.28125 C 10.050781 -20.726562 12.222656 -21.953125 15.234375 -21.953125 C 17.722656 -21.953125 19.550781 -21.273438 20.71875 -19.921875 C 21.882812 -18.566406 22.46875 -16.59375 22.46875 -14 L 22.46875 0 L 17.046875 0 L 17.046875 -13.34375 C 17.046875 -14.769531 16.757812 -15.800781 16.1875 -16.4375 C 15.613281 -17.070312 14.695312 -17.390625 13.4375 -17.390625 C 11.882812 -17.390625 10.675781 -16.882812 9.8125 -15.875 C 8.945312 -14.875 8.515625 -13.300781 8.515625 -11.15625 L 8.515625 0 Z M 3.109375 0 "/></g></g></g><g fill="#4154f1" fill-opacity="1"><g transform="translate(275.259668, 38.75)"><g><path d="M 10.640625 0.40625 C 8.941406 0.40625 7.4375 -0.00390625 6.125 -0.828125 C 4.8125 -1.660156 3.785156 -2.910156 3.046875 -4.578125 C 2.304688 -6.253906 1.9375 -8.316406 1.9375 -10.765625 C 1.9375 -13.222656 2.316406 -15.285156 3.078125 -16.953125 C 3.835938 -18.628906 4.890625 -19.878906 6.234375 -20.703125 C 7.585938 -21.535156 9.148438 -21.953125 10.921875 -21.953125 C 12.265625 -21.953125 13.425781 -21.71875 14.40625 -21.25 C 15.382812 -20.789062 16.210938 -20.078125 16.890625 -19.109375 L 17.3125 -19.203125 L 17.3125 -30.203125 L 22.71875 -30.203125 L 22.71875 0 L 17.3125 0 L 17.3125 -2.796875 L 16.890625 -2.875 C 16.296875 -1.851562 15.476562 -1.050781 14.4375 -0.46875 C 13.394531 0.113281 12.128906 0.40625 10.640625 0.40625 Z M 12.40625 -4.1875 C 13.925781 -4.1875 15.128906 -4.726562 16.015625 -5.8125 C 16.898438 -6.894531 17.34375 -8.546875 17.34375 -10.765625 C 17.34375 -12.972656 16.898438 -14.625 16.015625 -15.71875 C 15.128906 -16.8125 13.925781 -17.359375 12.40625 -17.359375 C 10.8125 -17.359375 9.59375 -16.828125 8.75 -15.765625 C 7.914062 -14.710938 7.5 -13.046875 7.5 -10.765625 C 7.5 -8.492188 7.914062 -6.828125 8.75 -5.765625 C 9.59375 -4.710938 10.8125 -4.1875 12.40625 -4.1875 Z M 12.40625 -4.1875 "/></g></g></g><g fill="#4154f1" fill-opacity="1"><g transform="translate(301.07747, 38.75)"><g><path d="M 10.078125 0.40625 C 8.609375 0.40625 7.257812 0.234375 6.03125 -0.109375 C 4.8125 -0.453125 3.769531 -0.925781 2.90625 -1.53125 C 2.039062 -2.132812 1.398438 -2.828125 0.984375 -3.609375 L 3.984375 -6.859375 L 4.390625 -6.859375 C 5.109375 -5.890625 5.957031 -5.164062 6.9375 -4.6875 C 7.914062 -4.207031 8.976562 -3.96875 10.125 -3.96875 C 11.175781 -3.96875 11.96875 -4.15625 12.5 -4.53125 C 13.03125 -4.90625 13.296875 -5.445312 13.296875 -6.15625 C 13.296875 -6.695312 13.101562 -7.15625 12.71875 -7.53125 C 12.34375 -7.90625 11.722656 -8.195312 10.859375 -8.40625 L 8.015625 -9.078125 C 5.878906 -9.585938 4.316406 -10.363281 3.328125 -11.40625 C 2.347656 -12.457031 1.859375 -13.789062 1.859375 -15.40625 C 1.859375 -16.75 2.195312 -17.914062 2.875 -18.90625 C 3.5625 -19.894531 4.523438 -20.648438 5.765625 -21.171875 C 7.015625 -21.691406 8.46875 -21.953125 10.125 -21.953125 C 12.0625 -21.953125 13.664062 -21.671875 14.9375 -21.109375 C 16.21875 -20.554688 17.21875 -19.8125 17.9375 -18.875 L 15.046875 -15.75 L 14.65625 -15.75 C 14.050781 -16.425781 13.375 -16.921875 12.625 -17.234375 C 11.875 -17.546875 11.039062 -17.703125 10.125 -17.703125 C 7.988281 -17.703125 6.921875 -17.035156 6.921875 -15.703125 C 6.921875 -15.140625 7.117188 -14.679688 7.515625 -14.328125 C 7.910156 -13.984375 8.609375 -13.703125 9.609375 -13.484375 L 12.265625 -12.890625 C 14.453125 -12.421875 16.050781 -11.664062 17.0625 -10.625 C 18.070312 -9.59375 18.578125 -8.207031 18.578125 -6.46875 C 18.578125 -5.101562 18.238281 -3.898438 17.5625 -2.859375 C 16.882812 -1.816406 15.90625 -1.007812 14.625 -0.4375 C 13.351562 0.125 11.835938 0.40625 10.078125 0.40625 Z M 10.078125 0.40625 "/></g></g></g></svg>