<svg xmlns="http://www.w3.org/2000/svg" xmlns:xlink="http://www.w3.org/1999/xlink" width="500" zoomAndPan="magnify" viewBox="0 0 375 374.999991" height="500" preserveAspectRatio="xMidYMid meet" version="1.0"><path fill="#4154f1" d="M 150.125 219.195312 L 150.125 198.074219 L 256.023438 156.902344 L 361.917969 198.074219 L 361.941406 219.195312 Z M 349.460938 300.175781 L 337 300.175781 L 337 231.65625 L 349.460938 231.65625 Z M 361.917969 362.46875 L 150.125 362.46875 L 150.125 337.550781 L 361.917969 337.550781 Z M 156.355469 312.632812 L 181.269531 312.632812 L 181.269531 325.09375 L 156.355469 325.09375 Z M 237.332031 301.929688 C 233.636719 304.070312 231.105469 308.058594 231.105469 312.632812 L 231.105469 325.09375 L 193.730469 325.09375 L 193.730469 312.632812 C 193.730469 308.058594 191.199219 304.070312 187.5 301.929688 L 187.5 231.65625 L 237.332031 231.65625 Z M 262.25 300.175781 L 249.792969 300.175781 L 249.792969 231.65625 L 262.25 231.65625 Z M 243.5625 312.632812 L 268.480469 312.632812 L 268.480469 325.09375 L 243.5625 325.09375 Z M 324.542969 301.929688 C 320.84375 304.070312 318.3125 308.058594 318.3125 312.632812 L 318.3125 325.09375 L 280.9375 325.09375 L 280.9375 312.632812 C 280.9375 308.058594 278.40625 304.070312 274.710938 301.929688 L 274.710938 231.65625 L 324.542969 231.65625 Z M 355.6875 325.09375 L 330.773438 325.09375 L 330.773438 312.632812 L 355.6875 312.632812 Z M 175.042969 231.65625 L 175.042969 300.175781 L 162.582031 300.175781 L 162.582031 231.65625 Z M 145.621094 186.46875 C 143.773438 187.175781 142.3125 188.367188 141.046875 189.730469 L 119.074219 167.78125 C 131.195312 155.636719 131.195312 135.878906 119.074219 123.738281 L 162.632812 80.183594 C 164.96875 77.847656 168.714844 77.722656 171.148438 79.867188 C 172.898438 81.445312 174.726562 83.054688 176.527344 84.660156 C 174.917969 85.828125 173.363281 87.066406 171.925781 88.527344 C 157.351562 103.078125 157.351562 126.804688 171.925781 141.355469 C 179.203125 148.65625 188.789062 152.304688 198.351562 152.304688 C 207.914062 152.304688 217.503906 148.65625 224.777344 141.355469 C 236.796875 129.335938 238.914062 110.816406 230.640625 96.4375 C 233.003906 92.589844 234.269531 88.015625 234.074219 83.320312 C 233.855469 76.96875 231.105469 71.007812 226.410156 66.847656 L 199.058594 43.753906 L 207.160156 35.652344 C 213.246094 41.710938 221.199219 44.753906 229.183594 44.753906 C 237.164062 44.753906 245.144531 41.710938 251.203125 35.652344 L 251.203125 35.628906 L 277.628906 62.078125 C 265.488281 74.21875 265.488281 93.980469 277.628906 106.121094 L 230.15625 153.59375 Z M 110.265625 132.570312 C 117.542969 139.847656 117.542969 151.695312 110.242188 158.996094 L 97.03125 145.785156 Z M 59.582031 138.191406 L 13.082031 138.214844 L 13.082031 44.753906 L 69.144531 44.753906 C 70.945312 44.753906 72.601562 45.507812 73.792969 46.847656 C 75.007812 48.183594 75.542969 49.910156 75.324219 51.6875 L 65.8125 132.667969 C 65.421875 135.832031 62.769531 138.191406 59.582031 138.191406 Z M 215.96875 132.570312 C 206.261719 142.28125 190.445312 142.28125 180.734375 132.570312 C 171.027344 122.835938 171.027344 107.046875 180.734375 97.335938 C 182.4375 95.609375 184.359375 94.34375 186.378906 93.25 C 191.613281 97.75 195.53125 101.058594 195.53125 101.058594 C 202.464844 107.460938 212.613281 108.699219 221.007812 104.808594 C 225.144531 114.003906 223.390625 125.148438 215.96875 132.570312 Z M 163.117188 39.667969 C 168.132812 37.550781 173.75 38.476562 177.914062 42.175781 C 177.914062 42.175781 218.234375 76.265625 218.257812 76.289062 C 222.660156 80.011719 222.710938 87.601562 218.695312 91.617188 C 214.824219 95.4375 207.964844 95.585938 203.777344 91.714844 C 203.777344 91.691406 183.410156 74.121094 179.421875 70.570312 C 172.074219 64.050781 160.808594 64.414062 153.824219 71.398438 L 93.113281 132.085938 C 88.660156 129.433594 84.914062 126.65625 79.535156 122.472656 L 87.34375 56.117188 C 123.601562 53.074219 152.535156 44.167969 163.117188 39.667969 Z M 229.207031 13.605469 L 242.417969 26.820312 L 242.394531 26.84375 C 235.121094 34.121094 223.246094 34.121094 215.96875 26.84375 Z M 286.4375 97.3125 C 279.164062 90.011719 279.164062 78.164062 286.4375 70.886719 L 299.652344 84.097656 Z M 366.421875 186.46875 L 260.523438 145.273438 C 259.332031 144.808594 258.089844 144.589844 256.847656 144.519531 L 308.460938 92.90625 C 313.300781 88.066406 313.300781 80.15625 308.460938 75.316406 L 237.992188 4.796875 C 233.148438 -0.0664062 225.242188 -0.0429688 220.398438 4.796875 L 189.519531 35.703125 L 186.089844 32.757812 C 178.449219 25.945312 167.789062 24.167969 158.25 28.183594 C 148.300781 32.417969 120.949219 40.8125 86.25 43.707031 C 85.449219 41.859375 84.472656 40.082031 83.113281 38.574219 C 79.558594 34.582031 74.472656 32.292969 69.144531 32.292969 L 13.082031 32.292969 C 6.21875 32.292969 0.621094 37.890625 0.621094 44.753906 L 0.621094 138.191406 C 0.621094 145.078125 6.21875 150.648438 13.082031 150.648438 L 59.582031 150.648438 C 68.195312 150.648438 75.519531 144.785156 77.636719 136.632812 C 80.191406 138.507812 82.648438 140.261719 85.277344 141.890625 C 83.839844 146.195312 84.789062 151.136719 88.222656 154.566406 L 137.667969 203.964844 L 137.667969 219.195312 C 137.667969 226.058594 143.261719 231.65625 150.125 231.65625 L 150.125 301.929688 C 146.425781 304.070312 143.894531 308.058594 143.894531 312.632812 L 143.894531 326.84375 C 140.195312 328.988281 137.667969 332.976562 137.667969 337.550781 L 137.667969 362.46875 C 137.667969 369.355469 143.261719 374.925781 150.125 374.925781 L 361.917969 374.925781 C 368.78125 374.925781 374.378906 369.355469 374.378906 362.46875 L 374.378906 337.550781 C 374.378906 332.976562 371.847656 328.988281 368.148438 326.84375 L 368.148438 312.632812 C 368.148438 308.058594 365.617188 304.070312 361.917969 301.929688 L 361.917969 231.65625 C 368.78125 231.65625 374.378906 226.058594 374.378906 219.195312 L 374.378906 198.074219 C 374.378906 192.890625 371.261719 188.34375 366.421875 186.46875 " fill-opacity="1" fill-rule="nonzero"/><path fill="#4154f1" d="M 268.480469 188.050781 L 243.5625 188.050781 C 240.132812 188.050781 237.332031 190.824219 237.332031 194.277344 C 237.332031 197.710938 240.132812 200.507812 243.5625 200.507812 L 268.480469 200.507812 C 271.910156 200.507812 274.710938 197.710938 274.710938 194.277344 C 274.710938 190.824219 271.910156 188.050781 268.480469 188.050781 " fill-opacity="1" fill-rule="nonzero"/></svg>