<svg xmlns="http://www.w3.org/2000/svg" xmlns:xlink="http://www.w3.org/1999/xlink" width="500" zoomAndPan="magnify" viewBox="0 0 375 374.999991" height="500" preserveAspectRatio="xMidYMid meet" version="1.0"><defs><clipPath id="c3e9a5c7f0"><path d="M 0 24 L 9 24 L 9 363.1875 L 0 363.1875 Z M 0 24 " clip-rule="nonzero"/></clipPath><clipPath id="9b0965d50f"><path d="M 0 354 L 358 354 L 358 363.1875 L 0 363.1875 Z M 0 354 " clip-rule="nonzero"/></clipPath><clipPath id="311d6a7f27"><path d="M 331 12.1875 L 375 12.1875 L 375 56 L 331 56 Z M 331 12.1875 " clip-rule="nonzero"/></clipPath></defs><path fill="#4154f1" d="M 56.691406 223.554688 C 56.691406 221.125 54.726562 219.15625 52.300781 219.15625 C 49.875 219.15625 47.910156 221.125 47.910156 223.554688 L 47.910156 241.050781 C 47.910156 243.476562 49.875 245.445312 52.300781 245.445312 C 54.726562 245.445312 56.691406 243.476562 56.691406 241.050781 Z M 56.691406 304.804688 C 56.691406 302.378906 54.726562 300.410156 52.300781 300.410156 C 49.875 300.410156 47.910156 302.378906 47.910156 304.804688 L 47.910156 322.304688 C 47.910156 324.730469 49.875 326.699219 52.300781 326.699219 C 54.726562 326.699219 56.691406 324.730469 56.691406 322.304688 Z M 56.691406 304.804688 " fill-opacity="1" fill-rule="nonzero"/><path fill="#4154f1" d="M 43.519531 236.65625 L 61.082031 236.65625 C 63.503906 236.65625 65.472656 238.625 65.472656 241.050781 L 65.472656 304.804688 C 65.472656 307.234375 63.503906 309.203125 61.082031 309.203125 L 43.519531 309.203125 C 41.097656 309.203125 39.128906 307.234375 39.128906 304.804688 L 39.128906 241.050781 C 39.128906 238.625 41.097656 236.65625 43.519531 236.65625 Z M 56.691406 245.445312 L 47.910156 245.445312 L 47.910156 300.410156 L 56.691406 300.410156 Z M 56.691406 245.445312 " fill-opacity="1" fill-rule="nonzero"/><path fill="#4154f1" d="M 147.859375 141.191406 C 147.859375 138.761719 145.894531 136.796875 143.46875 136.796875 C 141.046875 136.796875 139.078125 138.761719 139.078125 141.191406 L 139.078125 175.832031 C 139.078125 178.257812 141.046875 180.226562 143.46875 180.226562 C 145.894531 180.226562 147.859375 178.257812 147.859375 175.832031 Z M 147.859375 287.113281 C 147.859375 284.6875 145.894531 282.71875 143.46875 282.71875 C 141.046875 282.71875 139.078125 284.6875 139.078125 287.113281 L 139.078125 321.753906 C 139.078125 324.179688 141.046875 326.148438 143.46875 326.148438 C 145.894531 326.148438 147.859375 324.179688 147.859375 321.753906 Z M 147.859375 287.113281 " fill-opacity="1" fill-rule="nonzero"/><path fill="#4154f1" d="M 134.6875 171.4375 L 152.25 171.4375 C 154.671875 171.4375 156.640625 173.40625 156.640625 175.832031 L 156.640625 287.113281 C 156.640625 289.539062 154.671875 291.507812 152.25 291.507812 L 134.6875 291.507812 C 132.265625 291.507812 130.296875 289.539062 130.296875 287.113281 L 130.296875 175.832031 C 130.296875 173.40625 132.265625 171.4375 134.6875 171.4375 Z M 147.859375 180.226562 L 139.078125 180.226562 L 139.078125 282.71875 L 147.859375 282.71875 Z M 147.859375 180.226562 " fill-opacity="1" fill-rule="nonzero"/><path fill="#4154f1" d="M 268.957031 168.476562 C 268.957031 166.050781 266.988281 164.082031 264.566406 164.082031 C 262.140625 164.082031 260.175781 166.050781 260.175781 168.476562 L 260.175781 188.097656 C 260.175781 190.523438 262.140625 192.492188 264.566406 192.492188 C 266.988281 192.492188 268.957031 190.523438 268.957031 188.097656 Z M 268.957031 302.136719 C 268.957031 299.710938 266.988281 297.742188 264.566406 297.742188 C 262.140625 297.742188 260.175781 299.710938 260.175781 302.136719 L 260.175781 321.753906 C 260.175781 324.179688 262.140625 326.148438 264.566406 326.148438 C 266.988281 326.148438 268.957031 324.179688 268.957031 321.753906 Z M 268.957031 302.136719 " fill-opacity="1" fill-rule="nonzero"/><path fill="#4154f1" d="M 255.785156 183.699219 L 273.347656 183.699219 C 275.769531 183.699219 277.734375 185.667969 277.734375 188.09375 L 277.734375 302.136719 C 277.734375 304.5625 275.769531 306.53125 273.347656 306.53125 L 255.785156 306.53125 C 253.363281 306.53125 251.394531 304.5625 251.394531 302.136719 L 251.394531 188.09375 C 251.394531 185.667969 253.363281 183.699219 255.785156 183.699219 Z M 268.957031 192.492188 L 260.175781 192.492188 L 260.175781 297.742188 L 268.957031 297.742188 Z M 268.957031 192.492188 " fill-opacity="1" fill-rule="nonzero"/><path fill="#4154f1" d="M 357.589844 81.210938 C 357.589844 78.785156 355.625 76.816406 353.199219 76.816406 C 350.777344 76.816406 348.808594 78.785156 348.808594 81.210938 L 348.808594 116.792969 C 348.808594 119.21875 350.777344 121.1875 353.199219 121.1875 C 355.625 121.1875 357.589844 119.21875 357.589844 116.792969 Z M 357.589844 286.722656 C 357.589844 284.292969 355.625 282.328125 353.199219 282.328125 C 350.777344 282.328125 348.808594 284.292969 348.808594 286.722656 L 348.808594 322.304688 C 348.808594 324.730469 350.777344 326.699219 353.199219 326.699219 C 355.625 326.699219 357.589844 324.730469 357.589844 322.304688 Z M 357.589844 286.722656 " fill-opacity="1" fill-rule="nonzero"/><path fill="#4154f1" d="M 344.417969 112.398438 L 361.980469 112.398438 C 364.402344 112.398438 366.371094 114.367188 366.371094 116.792969 L 366.371094 286.722656 C 366.371094 289.148438 364.402344 291.117188 361.980469 291.117188 L 344.417969 291.117188 C 341.996094 291.117188 340.027344 289.148438 340.027344 286.722656 L 340.027344 116.792969 C 340.027344 114.367188 341.996094 112.398438 344.417969 112.398438 Z M 357.589844 121.1875 L 348.808594 121.1875 L 348.808594 282.328125 L 357.589844 282.328125 Z M 357.589844 121.1875 " fill-opacity="1" fill-rule="nonzero"/><g clip-path="url(#c3e9a5c7f0)"><path fill="#4154f1" d="M 8.976562 28.773438 C 8.976562 26.347656 7.011719 24.378906 4.589844 24.378906 C 2.164062 24.378906 0.199219 26.347656 0.199219 28.773438 L 0.199219 358.769531 C 0.199219 361.199219 2.164062 363.167969 4.589844 363.167969 C 7.011719 363.167969 8.976562 361.199219 8.976562 358.769531 Z M 8.976562 28.773438 " fill-opacity="1" fill-rule="nonzero"/></g><g clip-path="url(#9b0965d50f)"><path fill="#4154f1" d="M 353.199219 363.167969 C 355.625 363.167969 357.589844 361.199219 357.589844 358.769531 C 357.589844 356.34375 355.625 354.375 353.199219 354.375 L 4.589844 354.375 C 2.164062 354.375 0.195312 356.34375 0.195312 358.769531 C 0.195312 361.199219 2.164062 363.167969 4.589844 363.167969 Z M 353.199219 363.167969 " fill-opacity="1" fill-rule="nonzero"/></g><path fill="#4154f1" d="M 52.300781 154.527344 C 58.25 154.527344 63.652344 156.949219 67.570312 160.867188 L 67.582031 160.875 L 67.589844 160.867188 C 67.679688 160.957031 67.765625 161.050781 67.84375 161.144531 C 71.605469 165.046875 73.921875 170.34375 73.921875 176.171875 C 73.921875 182.148438 71.503906 187.5625 67.589844 191.480469 C 67.503906 191.566406 67.414062 191.648438 67.320312 191.726562 C 63.421875 195.5 58.125 197.820312 52.300781 197.820312 C 46.332031 197.820312 40.921875 195.398438 37.011719 191.480469 C 33.097656 187.5625 30.675781 182.148438 30.675781 176.171875 C 30.675781 170.210938 33.101562 164.800781 37.019531 160.875 L 37.011719 160.867188 L 37.097656 160.78125 C 41.003906 156.914062 46.371094 154.527344 52.300781 154.527344 Z M 64.484375 163.972656 L 61.382812 167.066406 C 59.070312 164.75 55.859375 163.316406 52.300781 163.316406 C 48.765625 163.316406 45.5625 164.746094 43.242188 167.058594 L 43.21875 167.082031 L 40.113281 163.972656 L 43.203125 167.082031 C 40.890625 169.398438 39.457031 172.613281 39.457031 176.171875 C 39.457031 179.722656 40.894531 182.9375 43.21875 185.261719 C 45.542969 187.589844 48.753906 189.03125 52.300781 189.03125 C 55.757812 189.03125 58.890625 187.675781 61.1875 185.46875 C 61.25 185.398438 61.3125 185.332031 61.382812 185.261719 C 63.703125 182.9375 65.144531 179.722656 65.144531 176.171875 C 65.144531 172.710938 63.789062 169.578125 61.59375 167.28125 C 61.519531 167.21875 61.449219 167.152344 61.378906 167.082031 Z M 64.484375 163.972656 " fill-opacity="1" fill-rule="nonzero"/><path fill="#4154f1" d="M 143.46875 72.164062 C 149.441406 72.164062 154.847656 74.589844 158.757812 78.503906 C 158.847656 78.59375 158.929688 78.683594 159.007812 78.777344 C 162.773438 82.675781 165.09375 87.980469 165.09375 93.8125 C 165.09375 99.773438 162.667969 105.179688 158.75 109.105469 L 158.757812 109.117188 L 158.671875 109.199219 C 154.769531 113.066406 149.398438 115.457031 143.46875 115.457031 C 137.5 115.457031 132.09375 113.03125 128.179688 109.117188 C 124.265625 105.199219 121.847656 99.789062 121.847656 93.8125 C 121.847656 87.851562 124.265625 82.449219 128.179688 78.523438 L 128.1875 78.515625 L 128.191406 78.515625 L 128.179688 78.503906 C 128.269531 78.414062 128.363281 78.328125 128.457031 78.25 C 132.355469 74.484375 137.648438 72.164062 143.46875 72.164062 Z M 152.550781 84.71875 C 150.226562 82.394531 147.015625 80.953125 143.46875 80.953125 C 140.011719 80.953125 136.882812 82.308594 134.585938 84.507812 C 134.523438 84.582031 134.457031 84.652344 134.390625 84.722656 L 131.285156 81.613281 L 134.371094 84.71875 C 132.058594 87.035156 130.628906 90.25 130.628906 93.8125 C 130.628906 97.359375 132.066406 100.574219 134.390625 102.902344 C 136.710938 105.226562 139.925781 106.667969 143.46875 106.667969 C 147.003906 106.667969 150.207031 105.238281 152.527344 102.921875 L 152.550781 102.898438 L 155.65625 106.007812 L 152.566406 102.902344 C 154.882812 100.585938 156.3125 97.371094 156.3125 93.8125 C 156.3125 90.347656 154.957031 87.214844 152.757812 84.914062 C 152.6875 84.851562 152.617188 84.789062 152.550781 84.71875 Z M 152.550781 84.71875 " fill-opacity="1" fill-rule="nonzero"/><g clip-path="url(#311d6a7f27)"><path fill="#4154f1" d="M 353.199219 12.1875 C 359.152344 12.1875 364.550781 14.609375 368.472656 18.527344 L 368.480469 18.535156 L 368.488281 18.527344 C 368.578125 18.617188 368.664062 18.710938 368.742188 18.804688 C 372.507812 22.707031 374.824219 28.003906 374.824219 33.832031 C 374.824219 39.789062 372.402344 45.195312 368.488281 49.121094 L 368.480469 49.128906 L 368.488281 49.140625 C 368.398438 49.230469 368.304688 49.3125 368.210938 49.394531 C 364.316406 53.160156 359.019531 55.480469 353.199219 55.480469 C 347.25 55.480469 341.847656 53.058594 337.925781 49.136719 L 337.917969 49.128906 L 337.910156 49.136719 C 337.820312 49.046875 337.734375 48.957031 337.65625 48.859375 C 333.890625 44.960938 331.578125 39.660156 331.578125 33.832031 C 331.578125 27.875 333.996094 22.46875 337.910156 18.542969 L 337.917969 18.535156 L 337.910156 18.527344 C 338 18.4375 338.09375 18.351562 338.1875 18.273438 C 342.085938 14.503906 347.378906 12.1875 353.199219 12.1875 Z M 365.386719 21.632812 L 362.28125 24.726562 C 359.96875 22.410156 356.757812 20.976562 353.199219 20.976562 C 349.742188 20.976562 346.613281 22.328125 344.316406 24.53125 C 344.253906 24.601562 344.1875 24.671875 344.117188 24.742188 L 341.015625 21.632812 L 344.101562 24.742188 C 341.789062 27.058594 340.355469 30.269531 340.355469 33.832031 C 340.355469 37.292969 341.710938 40.425781 343.90625 42.722656 C 343.980469 42.789062 344.050781 42.855469 344.121094 42.921875 L 341.015625 46.03125 L 344.117188 42.941406 C 346.429688 45.257812 349.640625 46.6875 353.199219 46.6875 C 356.65625 46.6875 359.785156 45.335938 362.082031 43.136719 C 362.144531 43.0625 362.210938 42.992188 362.28125 42.921875 L 365.386719 46.03125 L 362.296875 42.921875 C 364.609375 40.609375 366.042969 37.394531 366.042969 33.832031 C 366.042969 30.371094 364.691406 27.238281 362.492188 24.941406 C 362.417969 24.878906 362.347656 24.8125 362.28125 24.742188 Z M 365.386719 21.632812 " fill-opacity="1" fill-rule="nonzero"/></g><path fill="#4154f1" d="M 63.460938 163.382812 C 61.746094 165.097656 61.746094 167.882812 63.460938 169.597656 C 65.175781 171.3125 67.957031 171.3125 69.667969 169.597656 L 132.429688 106.773438 C 134.140625 105.058594 134.140625 102.273438 132.429688 100.558594 C 130.714844 98.839844 127.933594 98.839844 126.21875 100.558594 Z M 63.460938 163.382812 " fill-opacity="1" fill-rule="nonzero"/><path fill="#4154f1" d="M 161.835938 89.570312 C 159.496094 88.945312 157.09375 90.335938 156.46875 92.675781 C 155.84375 95.019531 157.234375 97.425781 159.570312 98.050781 L 246.652344 121.410156 C 248.988281 122.035156 251.394531 120.644531 252.019531 118.300781 C 252.644531 115.960938 251.253906 113.554688 248.914062 112.929688 Z M 161.835938 89.570312 " fill-opacity="1" fill-rule="nonzero"/><path fill="#4154f1" d="M 264.566406 99.453125 C 270.515625 99.453125 275.917969 101.875 279.839844 105.792969 L 279.847656 105.800781 L 279.855469 105.792969 C 279.945312 105.882812 280.03125 105.976562 280.109375 106.070312 C 283.871094 109.972656 286.1875 115.269531 286.1875 121.097656 C 286.1875 127.054688 283.769531 132.460938 279.855469 136.386719 L 279.847656 136.394531 L 279.84375 136.394531 L 279.855469 136.40625 C 279.765625 136.496094 279.671875 136.582031 279.578125 136.660156 C 275.679688 140.425781 270.386719 142.746094 264.566406 142.746094 C 258.617188 142.746094 253.214844 140.324219 249.292969 136.40625 L 249.285156 136.394531 L 249.277344 136.40625 C 249.1875 136.316406 249.101562 136.222656 249.019531 136.128906 C 245.257812 132.226562 242.941406 126.925781 242.941406 121.097656 C 242.941406 115.140625 245.363281 109.734375 249.277344 105.808594 L 249.285156 105.800781 L 249.277344 105.792969 C 249.367188 105.703125 249.460938 105.617188 249.554688 105.539062 C 253.449219 101.769531 258.746094 99.453125 264.566406 99.453125 Z M 276.75 108.902344 L 273.648438 111.992188 C 271.335938 109.675781 268.125 108.242188 264.566406 108.242188 C 261.109375 108.242188 257.980469 109.597656 255.683594 111.796875 C 255.621094 111.867188 255.554688 111.941406 255.484375 112.007812 L 252.378906 108.902344 L 255.46875 112.007812 C 253.15625 114.324219 251.722656 117.539062 251.722656 121.097656 C 251.722656 124.558594 253.074219 127.691406 255.273438 129.992188 C 255.34375 130.054688 255.417969 130.121094 255.484375 130.191406 L 252.378906 133.296875 L 255.484375 130.207031 C 257.796875 132.523438 261.007812 133.957031 264.566406 133.957031 C 268.023438 133.957031 271.152344 132.601562 273.449219 130.402344 C 273.511719 130.328125 273.578125 130.257812 273.648438 130.1875 L 276.75 133.296875 L 273.664062 130.191406 C 275.976562 127.875 277.410156 124.660156 277.410156 121.097656 C 277.410156 117.636719 276.054688 114.503906 273.859375 112.207031 C 273.785156 112.144531 273.714844 112.078125 273.644531 112.007812 Z M 276.75 108.902344 " fill-opacity="1" fill-rule="nonzero"/><path fill="#4154f1" d="M 275.109375 107.460938 C 273.394531 109.175781 273.394531 111.957031 275.109375 113.675781 C 276.824219 115.390625 279.605469 115.390625 281.316406 113.675781 L 345.0625 49.859375 C 346.777344 48.144531 346.777344 45.359375 345.0625 43.644531 C 343.351562 41.929688 340.570312 41.929688 338.855469 43.644531 Z M 275.109375 107.460938 " fill-opacity="1" fill-rule="nonzero"/></svg>